<svg width="121" height="121" viewBox="0 0 121 121" fill="none" xmlns="http://www.w3.org/2000/svg">
<path d="M84.624 79.0859L101.399 95.857L95.857 101.399L79.0859 84.624C72.8456 89.6265 65.0838 92.3473 57.0859 92.3359C37.6279 92.3359 21.8359 76.5439 21.8359 57.0859C21.8359 37.6279 37.6279 21.8359 57.0859 21.8359C76.5439 21.8359 92.3359 37.6279 92.3359 57.0859C92.3473 65.0838 89.6265 72.8456 84.624 79.0859ZM76.7672 76.1797C81.7368 71.0673 84.5126 64.2157 84.5026 57.0859C84.5026 41.9402 72.2317 29.6693 57.0859 29.6693C41.9402 29.6693 29.6693 41.9402 29.6693 57.0859C29.6693 72.2317 41.9402 84.5026 57.0859 84.5026C64.2157 84.5126 71.0673 81.7368 76.1797 76.7672L76.7672 76.1797Z" fill="#89B4FA"/>
</svg>