<svg width="121" height="121" viewBox="0 0 121 121" fill="none" xmlns="http://www.w3.org/2000/svg">
<g clip-path="url(#clip0_966_3)">
<path d="M91.587 84.1412L114.14 106.689L106.689 114.14L84.1412 91.587C75.7515 98.3125 65.3162 101.971 54.5635 101.955C28.4033 101.955 7.17188 80.7237 7.17188 54.5635C7.17188 28.4033 28.4033 7.17188 54.5635 7.17188C80.7237 7.17188 101.955 28.4033 101.955 54.5635C101.971 65.3162 98.3125 75.7515 91.587 84.1412ZM81.0239 80.234C87.7053 73.3607 91.4372 64.1491 91.4237 54.5635C91.4237 34.2009 74.9262 17.7034 54.5635 17.7034C34.2009 17.7034 17.7034 34.2009 17.7034 54.5635C17.7034 74.9262 34.2009 91.4237 54.5635 91.4237C64.1491 91.4372 73.3607 87.7053 80.234 81.0239L81.0239 80.234Z" fill="#89B4FA"/>
</g>
<defs>
<clipPath id="clip0_966_3">
<rect width="108.9" height="108.9" fill="white" transform="translate(6.05078 6.05078)"/>
</clipPath>
</defs>
</svg>
